{
    "asset" : {
        "generator" : "Khronos glTF Blender I/O v1.2.75",
        "version" : "2.0"
    },
    "scene" : 0,
    "scenes" : [
        {
            "name" : "Scene",
            "nodes" : [
                0
            ]
        }
    ],
    "nodes" : [
        {
            "mesh" : 0,
            "name" : "Plane"
        }
    ],
    "meshes" : [
        {
            "name" : "Plane",
            "primitives" : [
                {
                    "attributes" : {
                        "POSITION" : 0,
                        "NORMAL" : 1,
                        "TEXCOORD_0" : 2
                    },
                    "indices" : 3
                }
            ]
        }
    ],
    "accessors" : [
        {
            "bufferView" : 0,
            "componentType" : 5126,
            "count" : 24057,
            "max" : [
                2,
                0.06171301379799843,
                1
            ],
            "min" : [
                -2,
                0,
                -1
            ],
            "type" : "VEC3"
        },
        {
            "bufferView" : 1,
            "componentType" : 5126,
            "count" : 24057,
            "type" : "VEC3"
        },
        {
            "bufferView" : 2,
            "componentType" : 5126,
            "count" : 24057,
            "type" : "VEC2"
        },
        {
            "bufferView" : 3,
            "componentType" : 5123,
            "count" : 61206,
            "type" : "SCALAR"
        }
    ],
    "bufferViews" : [
        {
            "buffer" : 0,
            "byteLength" : 288684,
            "byteOffset" : 0
        },
        {
            "buffer" : 0,
            "byteLength" : 288684,
            "byteOffset" : 288684
        },
        {
            "buffer" : 0,
            "byteLength" : 192456,
            "byteOffset" : 577368
        },
        {
            "buffer" : 0,
            "byteLength" : 122412,
            "byteOffset" : 769824
        }
    ],
    "buffers" : [
        {
            "byteLength" : 892236,
            "uri" : "data:application/octet-stream;base64,"
        }
    ]
}
